Coordinates
version=1
nRows=16
nColumns=33
inDegrees=yes

Units are S.I. units (second, meters, Newtons, ...)
Angles are in degrees.

endheader
time	ground_thorax_rot_x	ground_thorax_rot_y	ground_thorax_rot_z	ground_thorax_tx	ground_thorax_ty	ground_thorax_tz	clav_prot_r	clav_elev_r	scapula_abduction_r	scapula_elevation_r	scapula_upward_rot_r	scapula_winging_r	shoulder_elv_r	plane_of_elev_r	axial_rot_r	elbow_flexion_r	pro_sup_r	wrist_flex_r	wrist_dev_r	clav_prot_l	clav_elev_l	scapula_abduction_l	scapula_elevation_l	scapula_upward_rot_l	scapula_winging_l	shoulder_elv_l	plane_of_elev_l	axial_rot_l	elbow_flexion_l	pro_sup_l	wrist_flex_l	wrist_dev_l
      4.80000000	     -2.38436147	      2.86006955	      9.71255345	     -0.09801543	      1.02703108	      0.01165624	     16.88141698	    -13.12233140	     42.90824570	    -13.61656823	     24.12722728	    -12.09120103	     -3.91049287	    -55.31671674	    122.73253326	    -32.48218891	   -142.19832982	      3.63604371	     -8.06307003	     25.91728430	    -10.96728497	    -38.95339277	     -6.08506981	    -25.20965214	     13.37635559	     54.66452091	      1.24085255	      3.91635259	     13.29667285	     18.73762249	     19.26953415	     -5.58578389
      4.81000000	     -2.32088970	      3.09960692	      9.71879190	     -0.09807348	      1.02711531	      0.01179462	     16.90849273	    -13.16869821	     42.81570512	    -13.60548370	     23.93149487	    -12.04942252	     -3.81173668	    -55.41476597	    122.70246492	    -32.58633212	   -142.20090528	      3.63698754	     -8.08669424	     25.85044082	    -10.90434439	    -38.85031236	     -6.17487195	    -25.28201367	     13.32531383	     54.64431126	      1.26292624	      3.99938337	     13.65029173	     18.56952872	     19.32798526	     -5.74318516
      4.82000000	     -2.75229400	      3.62399690	      9.58306659	     -0.09775944	      1.02909291	      0.01122397	     15.69915541	    -14.23886438	     39.86091387	    -14.18630607	     22.41801802	    -10.13968199	     -0.64913363	    -54.81385018	    125.39261280	    -35.62104172	    -93.63045533	     12.95518280	     35.00000010	     25.65677801	    -11.12042515	    -38.49129822	     -6.17501250	    -25.64816638	     13.02359772	     55.52816067	      1.22155564	      3.31940983	     13.73573723	     17.26556320	     19.06614045	     -5.89319681
      4.83000000	     -2.60095344	      3.88811478	      9.77387681	     -0.09762720	      1.02725315	      0.01257083	     16.23433869	    -13.16509702	     41.65936072	    -13.58870056	     23.76839273	    -11.50333281	     -4.08460783	    -55.09363789	    120.21937892	    -36.98780835	    -99.38979452	      4.45281221	     35.00000010	     25.81257900	    -10.65908434	    -38.80706683	     -6.55753681	    -25.66041897	     13.32833663	     54.98927193	      0.98278341	      3.93073837	     14.85278725	     16.54631718	     19.18121386	     -6.67784653
      4.84000000	     -2.67680960	      3.70820079	      9.80765024	     -0.09769614	      1.02783926	      0.01231230	     16.47569406	    -14.28194542	     40.98793307	    -14.15829089	     22.30571331	    -10.68421432	     -2.58867215	    -55.49045071	    121.35716431	    -36.94971229	   -111.60607225	     -0.13495886	     27.35951289	     25.05356997	    -10.69580103	    -37.54724005	     -6.65196784	    -25.83216870	     12.52826049	     55.46602614	      0.37968411	      4.09465967	     15.78382886	     16.45656725	     18.70760875	     -6.81124081
      4.85000000	     -2.62529212	      4.00687691	      9.93361601	     -0.09805889	      1.02731329	      0.01266142	     16.21628110	    -14.05365491	     40.23151864	    -13.82573877	     21.75601695	    -10.54949870	     -2.75041890	    -55.41263534	    121.58498851	    -36.52368489	   -119.87175234	     -1.85061626	     19.06581727	     25.04237451	    -10.62138938	    -37.53426174	     -6.80572756	    -26.02207024	     12.52501969	     55.47975521	      0.03056331	      4.18352177	     16.85939605	     16.12783612	     18.78514511	     -7.33540162
      4.86000000	     -2.74089972	      4.11477586	     10.00358048	     -0.09844177	      1.02733830	      0.01256644	     16.16957225	    -14.77414875	     39.45031773	    -14.17882068	     20.74643402	     -9.85014105	     -2.45703852	    -55.95605218	    121.95738239	    -37.06635298	   -127.94848135	     -1.62431957	     15.35572062	     24.75126489	    -10.48728871	    -37.06397401	     -7.08883797	    -26.34876962	     12.24237138	     55.77551387	     -0.26123797	      4.52629250	     17.96348886	     16.12779525	     18.51236161	     -7.46185988
      4.87000000	     -2.60869063	      4.29895337	     10.00914939	     -0.09874291	      1.02657476	      0.01296572	     16.02776417	    -14.41971039	     38.90304877	    -13.72901409	     20.21958917	     -9.89924259	     -2.60343630	    -55.94387610	    121.73004944	    -38.30778903	   -128.46198208	     -1.34196567	     14.78276195	     24.55861359	    -10.31960614	    -36.76263464	     -7.31657318	    -26.50763900	     12.08460894	     55.76193409	     -0.49211903	      4.99546127	     19.13137680	     15.94299087	     18.44775948	     -7.74638317
      4.88000000	     -2.76092383	      4.42792194	     10.09116579	     -0.09901456	      1.02708294	      0.01292000	     15.56049133	    -15.18735799	     37.55441252	    -14.17060992	     19.33493693	     -8.86466511	     -2.56606408	    -56.45446735	    122.43415760	    -38.28367174	   -137.16565150	      0.16074432	      9.26412232	     24.18126411	    -10.40641417	    -36.12468358	     -7.47082453	    -26.94617826	     11.64353630	     56.38512900	     -1.14749163	      5.19401923	     20.59435665	     15.83087491	     18.74046275	     -8.21450014
      4.89000000	     -2.63593334	      4.54964517	     10.14397932	     -0.09947432	      1.02623816	      0.01329443	     15.44136647	    -14.80452099	     36.99135320	    -13.66382165	     18.72515080	     -8.93596482	     -2.81222681	    -56.49687790	    122.26985290	    -39.72552752	   -137.71754294	      0.43956306	      9.08794497	     23.97266395	    -10.15873465	    -35.80696243	     -7.79750781	    -27.16748293	     11.48481240	     56.32055078	     -1.40859461	      5.72963850	     21.93359825	     15.65751340	     18.64151839	     -8.49095079
      4.90000000	     -2.63430253	      4.66142948	     10.42691929	     -0.10034322	      1.02629635	      0.01348424	     15.48350257	    -15.35619384	     36.15772592	    -13.74894578	     17.37030102	     -8.35751775	     -2.78938808	    -57.06712281	    122.17399472	    -41.21480467	   -142.40682200	      1.08583356	      8.64279438	     23.72082475	    -10.38522032	    -35.36833021	     -7.94538586	    -27.86554992	     11.11996636	     56.95265374	     -2.18130459	      5.64730021	     23.68819103	     15.76100819	     18.83049718	     -8.77840282
      4.91000000	     -2.57126638	      4.64524934	     10.42226019	     -0.10063916	      1.02567740	      0.01375621	     15.17314021	    -15.00578198	     35.46397146	    -13.34681954	     17.01757753	     -8.30378016	     -3.22212883	    -57.19730770	    122.24810576	    -42.54280805	   -142.93045093	      1.37968440	      8.45031419	     23.41929707	     -9.99064223	    -34.91433640	     -8.41520278	    -28.10937135	     10.90431674	     56.82954266	     -2.44817924	      6.65768453	     25.19491204	     15.48267747	     18.75979819	     -9.07465837
      4.92000000	     -2.68753267	      4.64060119	     10.48823941	     -0.10088851	      1.02629058	      0.01371783	     14.75836630	    -15.88199641	     34.04340922	    -13.79082025	     15.87159770	     -7.19725469	     -3.24275905	    -57.96142567	    122.64396009	    -44.13499058	   -148.54955542	      1.31863745	      7.87934391	     22.88485087	     -9.97140314	    -34.04077909	     -8.75296382	    -28.72609753	     10.33360008	     57.51409954	     -3.00343814	      7.20982089	     26.87762368	     15.51400599	     19.46232670	     -9.28845476
      4.93000000	     -2.49656225	      4.64992418	     10.39456096	     -0.10141627	      1.02577682	      0.01396478	     14.55002791	    -15.47290408	     33.46900791	    -13.30499334	     15.44821730	     -7.25023978	     -3.55373197	    -58.17183939	    122.59265949	    -45.75591173	   -148.79172340	      1.65641639	      7.74025968	     22.66658819	     -9.62880885	    -33.72101583	     -9.19825621	    -29.01702953	     10.18092284	     57.37961046	     -3.24457274	      7.76873844	     28.52985582	     15.28992034	     19.39230986	     -9.63424014
      4.94000000	     -2.39173664	      4.62319876	     10.52713135	     -0.10194454	      1.02538448	      0.01429139	     14.35511068	    -15.11655895	     32.80084690	    -12.80761313	     14.84688151	     -7.23716544	     -4.13927948	    -58.46081832	    122.56113982	    -47.52882783	   -149.16176312	      1.99799634	      7.70095326	     22.39904282	     -9.34377217	    -33.31727769	     -9.65545627	    -29.43183943	      9.95039045	     57.31494243	     -3.74416958	      8.43116082	     30.29468472	     15.05074330	     19.35110428	     -9.99099972
      4.95000000	     -2.40761241	      4.55695465	     10.83606832	     -0.10282455	      1.02604546	      0.01453106	     14.38439500	    -15.77515912	     32.04222195	    -12.99106634	     13.58900143	     -6.59848169	     -4.72204026	    -59.37181703	    121.97104954	    -49.76076113	   -151.61696572	      1.78182638	      8.03586462	     22.05065741	     -9.59667700	    -32.75056491	     -9.83993968	    -30.24505922	      9.49592955	     58.08336338	     -4.89523180	      8.34596428	     32.37347475	     14.95318308	     19.90875588	    -10.25848906
